<?xml version="1.0" encoding="UTF-8" standalone="no"?>
<!DOCTYPE svg PUBLIC "-//W3C//DTD SVG 1.1//EN"
 "http://www.w3.org/Graphics/SVG/1.1/DTD/svg11.dtd">
<!-- Generated by graphviz version 2.47.0 (20210316.0004)
 -->
<!-- Title: dependencies Pages: 1 -->
<svg width="4018pt" height="306pt"
 viewBox="0.00 0.00 4018.00 306.00" xmlns="http://www.w3.org/2000/svg" xmlns:xlink="http://www.w3.org/1999/xlink">
<g id="graph0" class="graph" transform="scale(1 1) rotate(0) translate(4 302)">
<title>dependencies</title>
<polygon fill="white" stroke="transparent" points="-4,4 -4,-302 4014,-302 4014,4 -4,4"/>
<text text-anchor="start" x="1984.01" y="-42.4" font-family="Times-12" font-weight="bold" font-size="14.00">Legend</text>
<polygon fill="#ffffb3" stroke="transparent" points="1771,-10 1771,-30 1791,-30 1791,-10 1771,-10"/>
<text text-anchor="start" x="1794.63" y="-15.4" font-family="Times-12" font-size="14.00"> &#160;Declarations</text>
<polygon fill="#8dd3c7" stroke="transparent" points="1884,-10 1884,-30 1904,-30 1904,-10 1884,-10"/>
<text text-anchor="start" x="1907.73" y="-15.4" font-family="Times-12" font-size="14.00"> &#160;Module</text>
<polygon fill="#80b1d3" stroke="transparent" points="1970,-10 1970,-30 1990,-30 1990,-10 1970,-10"/>
<text text-anchor="start" x="1993.78" y="-15.4" font-family="Times-12" font-size="14.00"> &#160;Bootstrap</text>
<polygon fill="#fdb462" stroke="transparent" points="2067,-10 2067,-30 2087,-30 2087,-10 2067,-10"/>
<text text-anchor="start" x="2090.67" y="-15.4" font-family="Times-12" font-size="14.00"> &#160;Providers</text>
<polygon fill="#fb8072" stroke="transparent" points="2163,-10 2163,-30 2183,-30 2183,-10 2163,-10"/>
<text text-anchor="start" x="2186.73" y="-15.4" font-family="Times-12" font-size="14.00"> &#160;Exports</text>
<g id="clust1" class="cluster">
<title>cluster_AppModule</title>
<polygon fill="none" stroke="black" stroke-dasharray="1,5" points="166,-70 166,-290 1992,-290 1992,-70 166,-70"/>
</g>
<g id="clust3" class="cluster">
<title>cluster_AppModule_imports</title>
<polygon fill="none" stroke="black" points="174,-154 174,-282 1892,-282 1892,-154 174,-154"/>
</g>
<g id="clust6" class="cluster">
<title>cluster_AppModule_providers</title>
<polygon fill="none" stroke="black" points="1686,-78 1686,-130 1984,-130 1984,-78 1686,-78"/>
</g>
<g id="clust7" class="cluster">
<title>cluster_AuthModule</title>
<polygon fill="none" stroke="black" stroke-dasharray="1,5" points="8,-146 8,-214 158,-214 158,-146 8,-146"/>
</g>
<g id="clust12" class="cluster">
<title>cluster_AuthModule_providers</title>
<polygon fill="none" stroke="black" points="16,-154 16,-206 150,-206 150,-154 16,-154"/>
</g>
<g id="clust13" class="cluster">
<title>cluster_CategoryModule</title>
<polygon fill="none" stroke="black" stroke-dasharray="1,5" points="2000,-70 2000,-138 2182,-138 2182,-70 2000,-70"/>
</g>
<g id="clust18" class="cluster">
<title>cluster_CategoryModule_providers</title>
<polygon fill="none" stroke="black" points="2008,-78 2008,-130 2174,-130 2174,-78 2008,-78"/>
</g>
<g id="clust19" class="cluster">
<title>cluster_ChaptersModule</title>
<polygon fill="none" stroke="black" stroke-dasharray="1,5" points="2190,-70 2190,-138 2370,-138 2370,-70 2190,-70"/>
</g>
<g id="clust24" class="cluster">
<title>cluster_ChaptersModule_providers</title>
<polygon fill="none" stroke="black" points="2198,-78 2198,-130 2362,-130 2362,-78 2198,-78"/>
</g>
<g id="clust25" class="cluster">
<title>cluster_ChartModule</title>
<polygon fill="none" stroke="black" stroke-dasharray="1,5" points="2378,-70 2378,-138 2532,-138 2532,-70 2378,-70"/>
</g>
<g id="clust30" class="cluster">
<title>cluster_ChartModule_providers</title>
<polygon fill="none" stroke="black" points="2386,-78 2386,-130 2524,-130 2524,-78 2386,-78"/>
</g>
<g id="clust31" class="cluster">
<title>cluster_CommentModule</title>
<polygon fill="none" stroke="black" stroke-dasharray="1,5" points="2540,-70 2540,-138 2728,-138 2728,-70 2540,-70"/>
</g>
<g id="clust36" class="cluster">
<title>cluster_CommentModule_providers</title>
<polygon fill="none" stroke="black" points="2548,-78 2548,-130 2720,-130 2720,-78 2548,-78"/>
</g>
<g id="clust37" class="cluster">
<title>cluster_CoursesModule</title>
<polygon fill="none" stroke="black" stroke-dasharray="1,5" points="2736,-70 2736,-138 2910,-138 2910,-70 2736,-70"/>
</g>
<g id="clust42" class="cluster">
<title>cluster_CoursesModule_providers</title>
<polygon fill="none" stroke="black" points="2744,-78 2744,-130 2902,-130 2902,-78 2744,-78"/>
</g>
<g id="clust43" class="cluster">
<title>cluster_DatabaseModule</title>
<polygon fill="none" stroke="black" stroke-dasharray="1,5" points="2000,-222 2000,-290 2144,-290 2144,-222 2000,-222"/>
</g>
<g id="clust46" class="cluster">
<title>cluster_DatabaseModule_exports</title>
<polygon fill="none" stroke="black" points="2008,-230 2008,-282 2136,-282 2136,-230 2008,-230"/>
</g>
<g id="clust49" class="cluster">
<title>cluster_FoldersModule</title>
<polygon fill="none" stroke="black" stroke-dasharray="1,5" points="2918,-70 2918,-138 3088,-138 3088,-70 2918,-70"/>
</g>
<g id="clust54" class="cluster">
<title>cluster_FoldersModule_providers</title>
<polygon fill="none" stroke="black" points="2926,-78 2926,-130 3080,-130 3080,-78 2926,-78"/>
</g>
<g id="clust61" class="cluster">
<title>cluster_LearningModule</title>
<polygon fill="none" stroke="black" stroke-dasharray="1,5" points="3096,-70 3096,-138 3278,-138 3278,-70 3096,-70"/>
</g>
<g id="clust66" class="cluster">
<title>cluster_LearningModule_providers</title>
<polygon fill="none" stroke="black" points="3104,-78 3104,-130 3270,-130 3270,-78 3104,-78"/>
</g>
<g id="clust67" class="cluster">
<title>cluster_NotebookModule</title>
<polygon fill="none" stroke="black" stroke-dasharray="1,5" points="3286,-70 3286,-138 3474,-138 3474,-70 3286,-70"/>
</g>
<g id="clust72" class="cluster">
<title>cluster_NotebookModule_providers</title>
<polygon fill="none" stroke="black" points="3294,-78 3294,-130 3466,-130 3466,-78 3294,-78"/>
</g>
<g id="clust73" class="cluster">
<title>cluster_NotesModule</title>
<polygon fill="none" stroke="black" stroke-dasharray="1,5" points="3482,-70 3482,-138 3640,-138 3640,-70 3482,-70"/>
</g>
<g id="clust78" class="cluster">
<title>cluster_NotesModule_providers</title>
<polygon fill="none" stroke="black" points="3490,-78 3490,-130 3632,-130 3632,-78 3490,-78"/>
</g>
<g id="clust79" class="cluster">
<title>cluster_PaymentModule</title>
<polygon fill="none" stroke="black" stroke-dasharray="1,5" points="3648,-70 3648,-138 3828,-138 3828,-70 3648,-70"/>
</g>
<g id="clust84" class="cluster">
<title>cluster_PaymentModule_providers</title>
<polygon fill="none" stroke="black" points="3656,-78 3656,-130 3820,-130 3820,-78 3656,-78"/>
</g>
<g id="clust85" class="cluster">
<title>cluster_UsersModule</title>
<polygon fill="none" stroke="black" stroke-dasharray="1,5" points="2152,-222 2152,-290 2426,-290 2426,-222 2152,-222"/>
</g>
<g id="clust88" class="cluster">
<title>cluster_UsersModule_exports</title>
<polygon fill="none" stroke="black" points="2308,-230 2308,-282 2418,-282 2418,-230 2308,-230"/>
</g>
<g id="clust90" class="cluster">
<title>cluster_UsersModule_providers</title>
<polygon fill="none" stroke="black" points="2160,-230 2160,-282 2300,-282 2300,-230 2160,-230"/>
</g>
<g id="clust91" class="cluster">
<title>cluster_VideosModule</title>
<polygon fill="none" stroke="black" stroke-dasharray="1,5" points="3836,-70 3836,-138 4002,-138 4002,-70 3836,-70"/>
</g>
<g id="clust96" class="cluster">
<title>cluster_VideosModule_providers</title>
<polygon fill="none" stroke="black" points="3844,-78 3844,-130 3994,-130 3994,-78 3844,-78"/>
</g>
<!-- AuthModule -->
<g id="node1" class="node">
<title>AuthModule</title>
<polygon fill="#8dd3c7" stroke="black" points="1881.55,-274 1878.55,-278 1857.55,-278 1854.55,-274 1794.45,-274 1794.45,-238 1881.55,-238 1881.55,-274"/>
<text text-anchor="middle" x="1838" y="-251.8" font-family="Times,serif" font-size="14.00">AuthModule</text>
</g>
<!-- AppModule -->
<g id="node16" class="node">
<title>AppModule</title>
<polygon fill="#8dd3c7" stroke="black" points="1983.66,-274 1980.66,-278 1959.66,-278 1956.66,-274 1900.34,-274 1900.34,-238 1983.66,-238 1983.66,-274"/>
<text text-anchor="middle" x="1942" y="-251.8" font-family="Times,serif" font-size="14.00">AppModule</text>
</g>
<!-- AuthModule&#45;&gt;AppModule -->
<g id="edge1" class="edge">
<title>AuthModule&#45;&gt;AppModule</title>
<path fill="none" stroke="black" d="M1881.8,-256C1881.8,-256 1890.24,-256 1890.24,-256"/>
<polygon fill="black" stroke="black" points="1890.24,-259.5 1900.24,-256 1890.24,-252.5 1890.24,-259.5"/>
</g>
<!-- CategoryModule -->
<g id="node2" class="node">
<title>CategoryModule</title>
<polygon fill="#8dd3c7" stroke="black" points="420.37,-198 417.37,-202 396.37,-202 393.37,-198 309.63,-198 309.63,-162 420.37,-162 420.37,-198"/>
<text text-anchor="middle" x="365" y="-175.8" font-family="Times,serif" font-size="14.00">CategoryModule</text>
</g>
<!-- CategoryModule&#45;&gt;AppModule -->
<g id="edge2" class="edge">
<title>CategoryModule&#45;&gt;AppModule</title>
<path fill="none" stroke="black" d="M365,-198.24C365,-213.57 365,-233 365,-233 365,-233 1909.05,-233 1909.05,-233 1909.05,-233 1909.05,-233.49 1909.05,-233.49"/>
<polygon fill="black" stroke="black" points="1905.55,-227.88 1909.05,-237.88 1912.55,-227.88 1905.55,-227.88"/>
</g>
<!-- ChaptersModule -->
<g id="node3" class="node">
<title>ChaptersModule</title>
<polygon fill="#8dd3c7" stroke="black" points="547.81,-198 544.81,-202 523.81,-202 520.81,-198 438.19,-198 438.19,-162 547.81,-162 547.81,-198"/>
<text text-anchor="middle" x="493" y="-175.8" font-family="Times,serif" font-size="14.00">ChaptersModule</text>
</g>
<!-- ChaptersModule&#45;&gt;AppModule -->
<g id="edge3" class="edge">
<title>ChaptersModule&#45;&gt;AppModule</title>
<path fill="none" stroke="black" d="M493,-198.05C493,-212.37 493,-230 493,-230 493,-230 1913.49,-230 1913.49,-230 1913.49,-230 1913.49,-230.79 1913.49,-230.79"/>
<polygon fill="black" stroke="black" points="1909.99,-227.94 1913.49,-237.94 1916.99,-227.94 1909.99,-227.94"/>
</g>
<!-- ChartModule -->
<g id="node4" class="node">
<title>ChartModule</title>
<polygon fill="#8dd3c7" stroke="black" points="656.15,-198 653.15,-202 632.15,-202 629.15,-198 565.85,-198 565.85,-162 656.15,-162 656.15,-198"/>
<text text-anchor="middle" x="611" y="-175.8" font-family="Times,serif" font-size="14.00">ChartModule</text>
</g>
<!-- ChartModule&#45;&gt;AppModule -->
<g id="edge4" class="edge">
<title>ChartModule&#45;&gt;AppModule</title>
<path fill="none" stroke="black" d="M611,-198.15C611,-211.74 611,-228 611,-228 611,-228 1917.92,-228 1917.92,-228 1917.92,-228 1917.92,-228.98 1917.92,-228.98"/>
<polygon fill="black" stroke="black" points="1914.42,-227.79 1917.92,-237.79 1921.42,-227.79 1914.42,-227.79"/>
</g>
<!-- CommentModule -->
<g id="node5" class="node">
<title>CommentModule</title>
<polygon fill="#8dd3c7" stroke="black" points="789.27,-198 786.27,-202 765.27,-202 762.27,-198 674.73,-198 674.73,-162 789.27,-162 789.27,-198"/>
<text text-anchor="middle" x="732" y="-175.8" font-family="Times,serif" font-size="14.00">CommentModule</text>
</g>
<!-- CommentModule&#45;&gt;AppModule -->
<g id="edge5" class="edge">
<title>CommentModule&#45;&gt;AppModule</title>
<path fill="none" stroke="black" d="M732,-198.04C732,-210.56 732,-225 732,-225 732,-225 1922.36,-225 1922.36,-225 1922.36,-225 1922.36,-227.97 1922.36,-227.97"/>
<polygon fill="black" stroke="black" points="1918.86,-227.97 1922.36,-237.97 1925.86,-227.97 1918.86,-227.97"/>
</g>
<!-- CoursesModule -->
<g id="node6" class="node">
<title>CoursesModule</title>
<polygon fill="#8dd3c7" stroke="black" points="912.15,-198 909.15,-202 888.15,-202 885.15,-198 807.85,-198 807.85,-162 912.15,-162 912.15,-198"/>
<text text-anchor="middle" x="860" y="-175.8" font-family="Times,serif" font-size="14.00">CoursesModule</text>
</g>
<!-- CoursesModule&#45;&gt;AppModule -->
<g id="edge6" class="edge">
<title>CoursesModule&#45;&gt;AppModule</title>
<path fill="none" stroke="black" d="M860,-198.06C860,-209.44 860,-222 860,-222 860,-222 1926.8,-222 1926.8,-222 1926.8,-222 1926.8,-227.81 1926.8,-227.81"/>
<polygon fill="black" stroke="black" points="1923.3,-227.81 1926.8,-237.81 1930.3,-227.81 1923.3,-227.81"/>
</g>
<!-- DatabaseModule -->
<g id="node7" class="node">
<title>DatabaseModule</title>
<polygon fill="#8dd3c7" stroke="black" points="1774.35,-198 1771.35,-202 1750.35,-202 1747.35,-198 1663.65,-198 1663.65,-162 1774.35,-162 1774.35,-198"/>
<text text-anchor="middle" x="1719" y="-175.8" font-family="Times,serif" font-size="14.00">DatabaseModule</text>
</g>
<!-- DatabaseModule&#45;&gt;AppModule -->
<g id="edge7" class="edge">
<title>DatabaseModule&#45;&gt;AppModule</title>
<path fill="none" stroke="black" d="M1700.53,-198.19C1700.53,-201.54 1700.53,-204 1700.53,-204 1700.53,-204 1957.87,-204 1957.87,-204 1957.87,-204 1957.87,-227.81 1957.87,-227.81"/>
<polygon fill="black" stroke="black" points="1954.37,-227.81 1957.87,-237.81 1961.37,-227.81 1954.37,-227.81"/>
</g>
<!-- DatabaseService  -->
<g id="node25" class="node">
<title>DatabaseService </title>
<polygon fill="#fb8072" stroke="black" points="2128.28,-274 2015.72,-274 2015.72,-238 2128.28,-238 2128.28,-274"/>
<text text-anchor="middle" x="2072" y="-251.8" font-family="Times,serif" font-size="14.00">DatabaseService </text>
</g>
<!-- DatabaseModule&#45;&gt;DatabaseService  -->
<g id="edge25" class="edge">
<title>DatabaseModule&#45;&gt;DatabaseService </title>
<path fill="none" stroke="black" stroke-dasharray="5,2" d="M1737.47,-198.08C1737.47,-199.85 1737.47,-201 1737.47,-201 1737.47,-201 2090.8,-201 2090.8,-201 2090.8,-201 2090.8,-227.99 2090.8,-227.99"/>
<polygon fill="black" stroke="black" points="2087.3,-227.99 2090.8,-237.99 2094.3,-227.99 2087.3,-227.99"/>
</g>
<!-- FoldersModule -->
<g id="node8" class="node">
<title>FoldersModule</title>
<polygon fill="#8dd3c7" stroke="black" points="1031.54,-198 1028.54,-202 1007.54,-202 1004.54,-198 930.46,-198 930.46,-162 1031.54,-162 1031.54,-198"/>
<text text-anchor="middle" x="981" y="-175.8" font-family="Times,serif" font-size="14.00">FoldersModule</text>
</g>
<!-- FoldersModule&#45;&gt;AppModule -->
<g id="edge8" class="edge">
<title>FoldersModule&#45;&gt;AppModule</title>
<path fill="none" stroke="black" d="M981,-198.13C981,-208.71 981,-220 981,-220 981,-220 1931.24,-220 1931.24,-220 1931.24,-220 1931.24,-227.58 1931.24,-227.58"/>
<polygon fill="black" stroke="black" points="1927.74,-227.58 1931.24,-237.58 1934.74,-227.58 1927.74,-227.58"/>
</g>
<!-- GatewayModule -->
<g id="node9" class="node">
<title>GatewayModule</title>
<polygon fill="#8dd3c7" stroke="black" points="291.8,-198 288.8,-202 267.8,-202 264.8,-198 182.2,-198 182.2,-162 291.8,-162 291.8,-198"/>
<text text-anchor="middle" x="237" y="-175.8" font-family="Times,serif" font-size="14.00">GatewayModule</text>
</g>
<!-- GatewayModule&#45;&gt;AppModule -->
<g id="edge9" class="edge">
<title>GatewayModule&#45;&gt;AppModule</title>
<path fill="none" stroke="black" d="M237,-198.03C237,-214.4 237,-236 237,-236 237,-236 1904.61,-236 1904.61,-236 1904.61,-236 1904.61,-236.18 1904.61,-236.18"/>
<polygon fill="black" stroke="black" points="1901.11,-227.85 1904.61,-237.85 1908.11,-227.85 1901.11,-227.85"/>
</g>
<!-- LearningModule -->
<g id="node10" class="node">
<title>LearningModule</title>
<polygon fill="#8dd3c7" stroke="black" points="1160.08,-198 1157.08,-202 1136.08,-202 1133.08,-198 1049.92,-198 1049.92,-162 1160.08,-162 1160.08,-198"/>
<text text-anchor="middle" x="1105" y="-175.8" font-family="Times,serif" font-size="14.00">LearningModule</text>
</g>
<!-- LearningModule&#45;&gt;AppModule -->
<g id="edge10" class="edge">
<title>LearningModule&#45;&gt;AppModule</title>
<path fill="none" stroke="black" d="M1105,-198.07C1105,-207.46 1105,-217 1105,-217 1105,-217 1935.68,-217 1935.68,-217 1935.68,-217 1935.68,-227.87 1935.68,-227.87"/>
<polygon fill="black" stroke="black" points="1932.18,-227.87 1935.68,-237.87 1939.18,-227.87 1932.18,-227.87"/>
</g>
<!-- NotebookModule -->
<g id="node11" class="node">
<title>NotebookModule</title>
<polygon fill="#8dd3c7" stroke="black" points="1292.26,-198 1289.26,-202 1268.26,-202 1265.26,-198 1177.74,-198 1177.74,-162 1292.26,-162 1292.26,-198"/>
<text text-anchor="middle" x="1235" y="-175.8" font-family="Times,serif" font-size="14.00">NotebookModule</text>
</g>
<!-- NotebookModule&#45;&gt;AppModule -->
<g id="edge11" class="edge">
<title>NotebookModule&#45;&gt;AppModule</title>
<path fill="none" stroke="black" d="M1235,-198.19C1235,-206.28 1235,-214 1235,-214 1235,-214 1940.12,-214 1940.12,-214 1940.12,-214 1940.12,-227.94 1940.12,-227.94"/>
<polygon fill="black" stroke="black" points="1936.62,-227.94 1940.12,-237.94 1943.62,-227.94 1936.62,-227.94"/>
</g>
<!-- NotesModule -->
<g id="node12" class="node">
<title>NotesModule</title>
<polygon fill="#8dd3c7" stroke="black" points="1402.21,-198 1399.21,-202 1378.21,-202 1375.21,-198 1309.79,-198 1309.79,-162 1402.21,-162 1402.21,-198"/>
<text text-anchor="middle" x="1356" y="-175.8" font-family="Times,serif" font-size="14.00">NotesModule</text>
</g>
<!-- NotesModule&#45;&gt;AppModule -->
<g id="edge12" class="edge">
<title>NotesModule&#45;&gt;AppModule</title>
<path fill="none" stroke="black" d="M1356,-198.24C1356,-205.43 1356,-212 1356,-212 1356,-212 1944.55,-212 1944.55,-212 1944.55,-212 1944.55,-227.85 1944.55,-227.85"/>
<polygon fill="black" stroke="black" points="1941.05,-227.85 1944.55,-237.85 1948.05,-227.85 1941.05,-227.85"/>
</g>
<!-- PaymentModule -->
<g id="node13" class="node">
<title>PaymentModule</title>
<polygon fill="#8dd3c7" stroke="black" points="1528.04,-198 1525.04,-202 1504.04,-202 1501.04,-198 1419.96,-198 1419.96,-162 1528.04,-162 1528.04,-198"/>
<text text-anchor="middle" x="1474" y="-175.8" font-family="Times,serif" font-size="14.00">PaymentModule</text>
</g>
<!-- PaymentModule&#45;&gt;AppModule -->
<g id="edge13" class="edge">
<title>PaymentModule&#45;&gt;AppModule</title>
<path fill="none" stroke="black" d="M1474,-198.2C1474,-204.03 1474,-209 1474,-209 1474,-209 1948.99,-209 1948.99,-209 1948.99,-209 1948.99,-227.96 1948.99,-227.96"/>
<polygon fill="black" stroke="black" points="1945.49,-227.96 1948.99,-237.96 1952.49,-227.96 1945.49,-227.96"/>
</g>
<!-- UsersModule -->
<g id="node14" class="node">
<title>UsersModule</title>
<polygon fill="#8dd3c7" stroke="black" points="1883.92,-198 1880.92,-202 1859.92,-202 1856.92,-198 1792.08,-198 1792.08,-162 1883.92,-162 1883.92,-198"/>
<text text-anchor="middle" x="1838" y="-175.8" font-family="Times,serif" font-size="14.00">UsersModule</text>
</g>
<!-- UsersModule&#45;&gt;AuthModule -->
<g id="edge18" class="edge">
<title>UsersModule&#45;&gt;AuthModule</title>
<path fill="none" stroke="black" d="M1838,-198.01C1838,-198.01 1838,-227.85 1838,-227.85"/>
<polygon fill="black" stroke="black" points="1834.5,-227.85 1838,-237.85 1841.5,-227.85 1834.5,-227.85"/>
</g>
<!-- UsersModule&#45;&gt;AppModule -->
<g id="edge14" class="edge">
<title>UsersModule&#45;&gt;AppModule</title>
<path fill="none" stroke="black" d="M1883.93,-189C1919.34,-189 1962.31,-189 1962.31,-189 1962.31,-189 1962.31,-227.69 1962.31,-227.69"/>
<polygon fill="black" stroke="black" points="1958.81,-227.69 1962.31,-237.69 1965.81,-227.69 1958.81,-227.69"/>
</g>
<!-- UsersService  -->
<g id="node31" class="node">
<title>UsersService </title>
<polygon fill="#fb8072" stroke="black" points="2409.85,-274 2316.15,-274 2316.15,-238 2409.85,-238 2409.85,-274"/>
<text text-anchor="middle" x="2363" y="-251.8" font-family="Times,serif" font-size="14.00">UsersService </text>
</g>
<!-- UsersModule&#45;&gt;UsersService  -->
<g id="edge32" class="edge">
<title>UsersModule&#45;&gt;UsersService </title>
<path fill="none" stroke="black" stroke-dasharray="5,2" d="M1883.9,-171C2007.01,-171 2335.32,-171 2335.32,-171 2335.32,-171 2335.32,-227.97 2335.32,-227.97"/>
<polygon fill="black" stroke="black" points="2331.82,-227.97 2335.32,-237.97 2338.82,-227.97 2331.82,-227.97"/>
</g>
<!-- VideosModule -->
<g id="node15" class="node">
<title>VideosModule</title>
<polygon fill="#8dd3c7" stroke="black" points="1645.71,-198 1642.71,-202 1621.71,-202 1618.71,-198 1546.29,-198 1546.29,-162 1645.71,-162 1645.71,-198"/>
<text text-anchor="middle" x="1596" y="-175.8" font-family="Times,serif" font-size="14.00">VideosModule</text>
</g>
<!-- VideosModule&#45;&gt;AppModule -->
<g id="edge15" class="edge">
<title>VideosModule&#45;&gt;AppModule</title>
<path fill="none" stroke="black" d="M1596,-198.06C1596,-202.49 1596,-206 1596,-206 1596,-206 1953.43,-206 1953.43,-206 1953.43,-206 1953.43,-227.95 1953.43,-227.95"/>
<polygon fill="black" stroke="black" points="1949.93,-227.95 1953.43,-237.95 1956.93,-227.95 1949.93,-227.95"/>
</g>
<!-- AppService -->
<g id="node17" class="node">
<title>AppService</title>
<ellipse fill="#fdb462" stroke="black" cx="1919" cy="-104" rx="56.74" ry="18"/>
<text text-anchor="middle" x="1919" y="-99.8" font-family="Times,serif" font-size="14.00">AppService</text>
</g>
<!-- AppService&#45;&gt;AppModule -->
<g id="edge16" class="edge">
<title>AppService&#45;&gt;AppModule</title>
<path fill="none" stroke="black" d="M1971.18,-111.33C1971.18,-111.33 1971.18,-227.93 1971.18,-227.93"/>
<polygon fill="black" stroke="black" points="1967.68,-227.93 1971.18,-237.93 1974.68,-227.93 1967.68,-227.93"/>
</g>
<!-- DatabaseService -->
<g id="node18" class="node">
<title>DatabaseService</title>
<ellipse fill="#fdb462" stroke="black" cx="1769" cy="-104" rx="75.26" ry="18"/>
<text text-anchor="middle" x="1769" y="-99.8" font-family="Times,serif" font-size="14.00">DatabaseService</text>
</g>
<!-- DatabaseService&#45;&gt;DatabaseModule -->
<g id="edge26" class="edge">
<title>DatabaseService&#45;&gt;DatabaseModule</title>
<path fill="none" stroke="black" d="M1734.02,-120.12C1734.02,-120.12 1734.02,-151.77 1734.02,-151.77"/>
<polygon fill="black" stroke="black" points="1730.52,-151.77 1734.02,-161.77 1737.52,-151.77 1730.52,-151.77"/>
</g>
<!-- DatabaseService&#45;&gt;AppModule -->
<g id="edge17" class="edge">
<title>DatabaseService&#45;&gt;AppModule</title>
<path fill="none" stroke="black" d="M1818.33,-117.88C1818.33,-134.17 1818.33,-159 1818.33,-159 1818.33,-159 1966.74,-159 1966.74,-159 1966.74,-159 1966.74,-227.76 1966.74,-227.76"/>
<polygon fill="black" stroke="black" points="1963.24,-227.76 1966.74,-237.76 1970.24,-227.76 1963.24,-227.76"/>
</g>
<!-- AuthService -->
<g id="node19" class="node">
<title>AuthService</title>
<ellipse fill="#fdb462" stroke="black" cx="83" cy="-180" rx="59.11" ry="18"/>
<text text-anchor="middle" x="83" y="-175.8" font-family="Times,serif" font-size="14.00">AuthService</text>
</g>
<!-- AuthService&#45;&gt;AuthModule -->
<g id="edge19" class="edge">
<title>AuthService&#45;&gt;AuthModule</title>
<path fill="none" stroke="black" d="M83,-198.01C83,-220.49 83,-256 83,-256 83,-256 1784.18,-256 1784.18,-256"/>
<polygon fill="black" stroke="black" points="1784.18,-259.5 1794.18,-256 1784.18,-252.5 1784.18,-259.5"/>
</g>
<!-- CategoryService -->
<g id="node20" class="node">
<title>CategoryService</title>
<ellipse fill="#fdb462" stroke="black" cx="2091" cy="-104" rx="75.28" ry="18"/>
<text text-anchor="middle" x="2091" y="-99.8" font-family="Times,serif" font-size="14.00">CategoryService</text>
</g>
<!-- CategoryService&#45;&gt;CategoryModule -->
<g id="edge20" class="edge">
<title>CategoryService&#45;&gt;CategoryModule</title>
<path fill="none" stroke="black" d="M2053.2,-119.99C2053.2,-123.4 2053.2,-126 2053.2,-126 2053.2,-126 365,-126 365,-126 365,-126 365,-151.72 365,-151.72"/>
<polygon fill="black" stroke="black" points="361.5,-151.72 365,-161.72 368.5,-151.72 361.5,-151.72"/>
</g>
<!-- ChaptersService -->
<g id="node21" class="node">
<title>ChaptersService</title>
<ellipse fill="#fdb462" stroke="black" cx="2280" cy="-104" rx="74.13" ry="18"/>
<text text-anchor="middle" x="2280" y="-99.8" font-family="Times,serif" font-size="14.00">ChaptersService</text>
</g>
<!-- ChaptersService&#45;&gt;ChaptersModule -->
<g id="edge21" class="edge">
<title>ChaptersService&#45;&gt;ChaptersModule</title>
<path fill="none" stroke="black" d="M2248.83,-120.54C2248.83,-125.19 2248.83,-129 2248.83,-129 2248.83,-129 493,-129 493,-129 493,-129 493,-151.88 493,-151.88"/>
<polygon fill="black" stroke="black" points="489.5,-151.88 493,-161.88 496.5,-151.88 489.5,-151.88"/>
</g>
<!-- ChartService -->
<g id="node22" class="node">
<title>ChartService</title>
<ellipse fill="#fdb462" stroke="black" cx="2455" cy="-104" rx="61.39" ry="18"/>
<text text-anchor="middle" x="2455" y="-99.8" font-family="Times,serif" font-size="14.00">ChartService</text>
</g>
<!-- ChartService&#45;&gt;ChartModule -->
<g id="edge22" class="edge">
<title>ChartService&#45;&gt;ChartModule</title>
<path fill="none" stroke="black" d="M2401.61,-113.17C2401.61,-121.33 2401.61,-132 2401.61,-132 2401.61,-132 611,-132 611,-132 611,-132 611,-151.85 611,-151.85"/>
<polygon fill="black" stroke="black" points="607.5,-151.85 611,-161.85 614.5,-151.85 607.5,-151.85"/>
</g>
<!-- CommentService -->
<g id="node23" class="node">
<title>CommentService</title>
<ellipse fill="#fdb462" stroke="black" cx="2634" cy="-104" rx="78.17" ry="18"/>
<text text-anchor="middle" x="2634" y="-99.8" font-family="Times,serif" font-size="14.00">CommentService</text>
</g>
<!-- CommentService&#45;&gt;CommentModule -->
<g id="edge23" class="edge">
<title>CommentService&#45;&gt;CommentModule</title>
<path fill="none" stroke="black" d="M2634,-122.03C2634,-128.85 2634,-135 2634,-135 2634,-135 732,-135 732,-135 732,-135 732,-151.96 732,-151.96"/>
<polygon fill="black" stroke="black" points="728.5,-151.96 732,-161.96 735.5,-151.96 728.5,-151.96"/>
</g>
<!-- CoursesService -->
<g id="node24" class="node">
<title>CoursesService</title>
<ellipse fill="#fdb462" stroke="black" cx="2823" cy="-104" rx="71.2" ry="18"/>
<text text-anchor="middle" x="2823" y="-99.8" font-family="Times,serif" font-size="14.00">CoursesService</text>
</g>
<!-- CoursesService&#45;&gt;CoursesModule -->
<g id="edge24" class="edge">
<title>CoursesService&#45;&gt;CoursesModule</title>
<path fill="none" stroke="black" d="M2823,-122.19C2823,-130.28 2823,-138 2823,-138 2823,-138 860,-138 860,-138 860,-138 860,-151.94 860,-151.94"/>
<polygon fill="black" stroke="black" points="856.5,-151.94 860,-161.94 863.5,-151.94 856.5,-151.94"/>
</g>
<!-- FoldersService -->
<g id="node26" class="node">
<title>FoldersService</title>
<ellipse fill="#fdb462" stroke="black" cx="3003" cy="-104" rx="68.92" ry="18"/>
<text text-anchor="middle" x="3003" y="-99.8" font-family="Times,serif" font-size="14.00">FoldersService</text>
</g>
<!-- FoldersService&#45;&gt;FoldersModule -->
<g id="edge27" class="edge">
<title>FoldersService&#45;&gt;FoldersModule</title>
<path fill="none" stroke="black" d="M3003,-122.07C3003,-131.46 3003,-141 3003,-141 3003,-141 981,-141 981,-141 981,-141 981,-151.87 981,-151.87"/>
<polygon fill="black" stroke="black" points="977.5,-151.87 981,-161.87 984.5,-151.87 977.5,-151.87"/>
</g>
<!-- LearningService -->
<g id="node27" class="node">
<title>LearningService</title>
<ellipse fill="#fdb462" stroke="black" cx="3187" cy="-104" rx="74.7" ry="18"/>
<text text-anchor="middle" x="3187" y="-99.8" font-family="Times,serif" font-size="14.00">LearningService</text>
</g>
<!-- LearningService&#45;&gt;LearningModule -->
<g id="edge28" class="edge">
<title>LearningService&#45;&gt;LearningModule</title>
<path fill="none" stroke="black" d="M3187,-122.13C3187,-132.71 3187,-144 3187,-144 3187,-144 1105,-144 1105,-144 1105,-144 1105,-151.58 1105,-151.58"/>
<polygon fill="black" stroke="black" points="1101.5,-151.58 1105,-161.58 1108.5,-151.58 1101.5,-151.58"/>
</g>
<!-- NotebookService -->
<g id="node28" class="node">
<title>NotebookService</title>
<ellipse fill="#fdb462" stroke="black" cx="3380" cy="-104" rx="78.15" ry="18"/>
<text text-anchor="middle" x="3380" y="-99.8" font-family="Times,serif" font-size="14.00">NotebookService</text>
</g>
<!-- NotebookService&#45;&gt;NotebookModule -->
<g id="edge29" class="edge">
<title>NotebookService&#45;&gt;NotebookModule</title>
<path fill="none" stroke="black" d="M3380,-122.49C3380,-134.14 3380,-147 3380,-147 3380,-147 1235,-147 1235,-147 1235,-147 1235,-151.96 1235,-151.96"/>
<polygon fill="black" stroke="black" points="1231.5,-151.96 1235,-161.96 1238.5,-151.96 1231.5,-151.96"/>
</g>
<!-- NotesService -->
<g id="node29" class="node">
<title>NotesService</title>
<ellipse fill="#fdb462" stroke="black" cx="3561" cy="-104" rx="62.54" ry="18"/>
<text text-anchor="middle" x="3561" y="-99.8" font-family="Times,serif" font-size="14.00">NotesService</text>
</g>
<!-- NotesService&#45;&gt;NotesModule -->
<g id="edge30" class="edge">
<title>NotesService&#45;&gt;NotesModule</title>
<path fill="none" stroke="black" d="M3561,-122.18C3561,-135.04 3561,-150 3561,-150 3561,-150 1356,-150 1356,-150 1356,-150 1356,-151.86 1356,-151.86"/>
<polygon fill="black" stroke="black" points="1352.5,-151.86 1356,-161.86 1359.5,-151.86 1352.5,-151.86"/>
</g>
<!-- PaymentService -->
<g id="node30" class="node">
<title>PaymentService</title>
<ellipse fill="#fdb462" stroke="black" cx="3738" cy="-104" rx="73.57" ry="18"/>
<text text-anchor="middle" x="3738" y="-99.8" font-family="Times,serif" font-size="14.00">PaymentService</text>
</g>
<!-- PaymentService&#45;&gt;PaymentModule -->
<g id="edge31" class="edge">
<title>PaymentService&#45;&gt;PaymentModule</title>
<path fill="none" stroke="black" d="M3738,-122.25C3738,-136.18 3738,-153 3738,-153 3738,-153 1474,-153 1474,-153 1474,-153 1474,-153.88 1474,-153.88"/>
<polygon fill="black" stroke="black" points="1470.5,-151.84 1474,-161.84 1477.5,-151.84 1470.5,-151.84"/>
</g>
<!-- UsersService -->
<g id="node32" class="node">
<title>UsersService</title>
<ellipse fill="#fdb462" stroke="black" cx="2230" cy="-256" rx="61.95" ry="18"/>
<text text-anchor="middle" x="2230" y="-251.8" font-family="Times,serif" font-size="14.00">UsersService</text>
</g>
<!-- UsersService&#45;&gt;UsersModule -->
<g id="edge33" class="edge">
<title>UsersService&#45;&gt;UsersModule</title>
<path fill="none" stroke="black" d="M2186.85,-242.76C2186.85,-220.99 2186.85,-180 2186.85,-180 2186.85,-180 1893.97,-180 1893.97,-180"/>
<polygon fill="black" stroke="black" points="1893.97,-176.5 1883.97,-180 1893.97,-183.5 1893.97,-176.5"/>
</g>
<!-- VideosService -->
<g id="node33" class="node">
<title>VideosService</title>
<ellipse fill="#fdb462" stroke="black" cx="3919" cy="-104" rx="67.19" ry="18"/>
<text text-anchor="middle" x="3919" y="-99.8" font-family="Times,serif" font-size="14.00">VideosService</text>
</g>
<!-- VideosService&#45;&gt;VideosModule -->
<g id="edge34" class="edge">
<title>VideosService&#45;&gt;VideosModule</title>
<path fill="none" stroke="black" d="M3919,-122.19C3919,-137.18 3919,-156 3919,-156 3919,-156 1596,-156 1596,-156 1596,-156 1596,-156.58 1596,-156.58"/>
<polygon fill="black" stroke="black" points="1592.5,-151.81 1596,-161.81 1599.5,-151.81 1592.5,-151.81"/>
</g>
</g>
</svg>
