<?xml version="1.0" encoding="UTF-8" standalone="no"?>
<!DOCTYPE svg PUBLIC "-//W3C//DTD SVG 1.1//EN"
 "http://www.w3.org/Graphics/SVG/1.1/DTD/svg11.dtd">
<!-- Generated by graphviz version 2.47.0 (20210316.0004)
 -->
<!-- Title: dependencies Pages: 1 -->
<svg width="2169pt" height="211pt"
 viewBox="0.00 0.00 2169.00 211.00" xmlns="http://www.w3.org/2000/svg" xmlns:xlink="http://www.w3.org/1999/xlink">
<g id="graph0" class="graph" transform="scale(1 1) rotate(0) translate(4 207)">
<title>dependencies</title>
<polygon fill="white" stroke="transparent" points="-4,4 -4,-207 2165,-207 2165,4 -4,4"/>
<text text-anchor="start" x="1059.51" y="-42.4" font-family="Times-12" font-weight="bold" font-size="14.00">Legend</text>
<polygon fill="#ffffb3" stroke="transparent" points="846.5,-10 846.5,-30 866.5,-30 866.5,-10 846.5,-10"/>
<text text-anchor="start" x="870.13" y="-15.4" font-family="Times-12" font-size="14.00"> &#160;Declarations</text>
<polygon fill="#8dd3c7" stroke="transparent" points="959.5,-10 959.5,-30 979.5,-30 979.5,-10 959.5,-10"/>
<text text-anchor="start" x="983.23" y="-15.4" font-family="Times-12" font-size="14.00"> &#160;Module</text>
<polygon fill="#80b1d3" stroke="transparent" points="1045.5,-10 1045.5,-30 1065.5,-30 1065.5,-10 1045.5,-10"/>
<text text-anchor="start" x="1069.28" y="-15.4" font-family="Times-12" font-size="14.00"> &#160;Bootstrap</text>
<polygon fill="#fdb462" stroke="transparent" points="1142.5,-10 1142.5,-30 1162.5,-30 1162.5,-10 1142.5,-10"/>
<text text-anchor="start" x="1166.17" y="-15.4" font-family="Times-12" font-size="14.00"> &#160;Providers</text>
<polygon fill="#fb8072" stroke="transparent" points="1238.5,-10 1238.5,-30 1258.5,-30 1258.5,-10 1238.5,-10"/>
<text text-anchor="start" x="1262.23" y="-15.4" font-family="Times-12" font-size="14.00"> &#160;Exports</text>
<g id="clust1" class="cluster">
<title>cluster_AppModule</title>
<polygon fill="none" stroke="black" stroke-dasharray="1,5" points="8,-70 8,-195 2153,-195 2153,-70 8,-70"/>
</g>
<g id="clust3" class="cluster">
<title>cluster_AppModule_imports</title>
<polygon fill="none" stroke="black" points="322,-78 322,-130 2145,-130 2145,-78 322,-78"/>
</g>
<g id="clust6" class="cluster">
<title>cluster_AppModule_providers</title>
<polygon fill="none" stroke="black" points="16,-78 16,-130 314,-130 314,-78 16,-78"/>
</g>
<!-- AuthModule -->
<g id="node1" class="node">
<title>AuthModule</title>
<polygon fill="#8dd3c7" stroke="black" points="2136.55,-122 2133.55,-126 2112.55,-126 2109.55,-122 2049.45,-122 2049.45,-86 2136.55,-86 2136.55,-122"/>
<text text-anchor="middle" x="2093" y="-99.8" font-family="Times,serif" font-size="14.00">AuthModule</text>
</g>
<!-- AppModule -->
<g id="node16" class="node">
<title>AppModule</title>
<polygon fill="#8dd3c7" stroke="black" points="1149.66,-187 1146.66,-191 1125.66,-191 1122.66,-187 1066.34,-187 1066.34,-151 1149.66,-151 1149.66,-187"/>
<text text-anchor="middle" x="1108" y="-164.8" font-family="Times,serif" font-size="14.00">AppModule</text>
</g>
<!-- AuthModule&#45;&gt;AppModule -->
<g id="edge1" class="edge">
<title>AuthModule&#45;&gt;AppModule</title>
<path fill="none" stroke="black" d="M2093,-122.32C2093,-145.66 2093,-183 2093,-183 2093,-183 1159.7,-183 1159.7,-183"/>
<polygon fill="black" stroke="black" points="1159.7,-179.5 1149.7,-183 1159.7,-186.5 1159.7,-179.5"/>
</g>
<!-- CategoryModule -->
<g id="node2" class="node">
<title>CategoryModule</title>
<polygon fill="#8dd3c7" stroke="black" points="2031.37,-122 2028.37,-126 2007.37,-126 2004.37,-122 1920.63,-122 1920.63,-86 2031.37,-86 2031.37,-122"/>
<text text-anchor="middle" x="1976" y="-99.8" font-family="Times,serif" font-size="14.00">CategoryModule</text>
</g>
<!-- CategoryModule&#45;&gt;AppModule -->
<g id="edge2" class="edge">
<title>CategoryModule&#45;&gt;AppModule</title>
<path fill="none" stroke="black" d="M1976,-122.16C1976,-144.35 1976,-179 1976,-179 1976,-179 1159.87,-179 1159.87,-179"/>
<polygon fill="black" stroke="black" points="1159.87,-175.5 1149.87,-179 1159.87,-182.5 1159.87,-175.5"/>
</g>
<!-- ChaptersModule -->
<g id="node3" class="node">
<title>ChaptersModule</title>
<polygon fill="#8dd3c7" stroke="black" points="1902.81,-122 1899.81,-126 1878.81,-126 1875.81,-122 1793.19,-122 1793.19,-86 1902.81,-86 1902.81,-122"/>
<text text-anchor="middle" x="1848" y="-99.8" font-family="Times,serif" font-size="14.00">ChaptersModule</text>
</g>
<!-- ChaptersModule&#45;&gt;AppModule -->
<g id="edge3" class="edge">
<title>ChaptersModule&#45;&gt;AppModule</title>
<path fill="none" stroke="black" d="M1848,-122.28C1848,-143.32 1848,-175 1848,-175 1848,-175 1159.91,-175 1159.91,-175"/>
<polygon fill="black" stroke="black" points="1159.91,-171.5 1149.91,-175 1159.91,-178.5 1159.91,-171.5"/>
</g>
<!-- ChartModule -->
<g id="node4" class="node">
<title>ChartModule</title>
<polygon fill="#8dd3c7" stroke="black" points="1775.15,-122 1772.15,-126 1751.15,-126 1748.15,-122 1684.85,-122 1684.85,-86 1775.15,-86 1775.15,-122"/>
<text text-anchor="middle" x="1730" y="-99.8" font-family="Times,serif" font-size="14.00">ChartModule</text>
</g>
<!-- ChartModule&#45;&gt;AppModule -->
<g id="edge4" class="edge">
<title>ChartModule&#45;&gt;AppModule</title>
<path fill="none" stroke="black" d="M1730,-122.31C1730,-142.15 1730,-171 1730,-171 1730,-171 1159.78,-171 1159.78,-171"/>
<polygon fill="black" stroke="black" points="1159.78,-167.5 1149.78,-171 1159.78,-174.5 1159.78,-167.5"/>
</g>
<!-- CommentModule -->
<g id="node5" class="node">
<title>CommentModule</title>
<polygon fill="#8dd3c7" stroke="black" points="1666.27,-122 1663.27,-126 1642.27,-126 1639.27,-122 1551.73,-122 1551.73,-86 1666.27,-86 1666.27,-122"/>
<text text-anchor="middle" x="1609" y="-99.8" font-family="Times,serif" font-size="14.00">CommentModule</text>
</g>
<!-- CommentModule&#45;&gt;AppModule -->
<g id="edge5" class="edge">
<title>CommentModule&#45;&gt;AppModule</title>
<path fill="none" stroke="black" d="M1609,-122.22C1609,-140.83 1609,-167 1609,-167 1609,-167 1159.85,-167 1159.85,-167"/>
<polygon fill="black" stroke="black" points="1159.85,-163.5 1149.85,-167 1159.85,-170.5 1159.85,-163.5"/>
</g>
<!-- CoursesModule -->
<g id="node6" class="node">
<title>CoursesModule</title>
<polygon fill="#8dd3c7" stroke="black" points="1533.15,-122 1530.15,-126 1509.15,-126 1506.15,-122 1428.85,-122 1428.85,-86 1533.15,-86 1533.15,-122"/>
<text text-anchor="middle" x="1481" y="-99.8" font-family="Times,serif" font-size="14.00">CoursesModule</text>
</g>
<!-- CoursesModule&#45;&gt;AppModule -->
<g id="edge6" class="edge">
<title>CoursesModule&#45;&gt;AppModule</title>
<path fill="none" stroke="black" d="M1481,-122.02C1481,-139.37 1481,-163 1481,-163 1481,-163 1159.7,-163 1159.7,-163"/>
<polygon fill="black" stroke="black" points="1159.7,-159.5 1149.7,-163 1159.7,-166.5 1159.7,-159.5"/>
</g>
<!-- DatabaseModule -->
<g id="node7" class="node">
<title>DatabaseModule</title>
<polygon fill="#8dd3c7" stroke="black" points="1410.35,-122 1407.35,-126 1386.35,-126 1383.35,-122 1299.65,-122 1299.65,-86 1410.35,-86 1410.35,-122"/>
<text text-anchor="middle" x="1355" y="-99.8" font-family="Times,serif" font-size="14.00">DatabaseModule</text>
</g>
<!-- DatabaseModule&#45;&gt;AppModule -->
<g id="edge7" class="edge">
<title>DatabaseModule&#45;&gt;AppModule</title>
<path fill="none" stroke="black" d="M1355,-122.01C1355,-138.05 1355,-159 1355,-159 1355,-159 1159.9,-159 1159.9,-159"/>
<polygon fill="black" stroke="black" points="1159.9,-155.5 1149.9,-159 1159.9,-162.5 1159.9,-155.5"/>
</g>
<!-- FoldersModule -->
<g id="node8" class="node">
<title>FoldersModule</title>
<polygon fill="#8dd3c7" stroke="black" points="1281.54,-122 1278.54,-126 1257.54,-126 1254.54,-122 1180.46,-122 1180.46,-86 1281.54,-86 1281.54,-122"/>
<text text-anchor="middle" x="1231" y="-99.8" font-family="Times,serif" font-size="14.00">FoldersModule</text>
</g>
<!-- FoldersModule&#45;&gt;AppModule -->
<g id="edge8" class="edge">
<title>FoldersModule&#45;&gt;AppModule</title>
<path fill="none" stroke="black" d="M1231,-122.12C1231,-136.78 1231,-155 1231,-155 1231,-155 1159.99,-155 1159.99,-155"/>
<polygon fill="black" stroke="black" points="1159.99,-151.5 1149.99,-155 1159.99,-158.5 1159.99,-151.5"/>
</g>
<!-- GatewayModule -->
<g id="node9" class="node">
<title>GatewayModule</title>
<polygon fill="#8dd3c7" stroke="black" points="1162.8,-122 1159.8,-126 1138.8,-126 1135.8,-122 1053.2,-122 1053.2,-86 1162.8,-86 1162.8,-122"/>
<text text-anchor="middle" x="1108" y="-99.8" font-family="Times,serif" font-size="14.00">GatewayModule</text>
</g>
<!-- GatewayModule&#45;&gt;AppModule -->
<g id="edge9" class="edge">
<title>GatewayModule&#45;&gt;AppModule</title>
<path fill="none" stroke="black" d="M1108,-122.11C1108,-122.11 1108,-140.99 1108,-140.99"/>
<polygon fill="black" stroke="black" points="1104.5,-140.99 1108,-150.99 1111.5,-140.99 1104.5,-140.99"/>
</g>
<!-- LearningModule -->
<g id="node10" class="node">
<title>LearningModule</title>
<polygon fill="#8dd3c7" stroke="black" points="1035.08,-122 1032.08,-126 1011.08,-126 1008.08,-122 924.92,-122 924.92,-86 1035.08,-86 1035.08,-122"/>
<text text-anchor="middle" x="980" y="-99.8" font-family="Times,serif" font-size="14.00">LearningModule</text>
</g>
<!-- LearningModule&#45;&gt;AppModule -->
<g id="edge10" class="edge">
<title>LearningModule&#45;&gt;AppModule</title>
<path fill="none" stroke="black" d="M980,-122.12C980,-136.78 980,-155 980,-155 980,-155 1056.09,-155 1056.09,-155"/>
<polygon fill="black" stroke="black" points="1056.09,-158.5 1066.09,-155 1056.09,-151.5 1056.09,-158.5"/>
</g>
<!-- NotebookModule -->
<g id="node11" class="node">
<title>NotebookModule</title>
<polygon fill="#8dd3c7" stroke="black" points="907.26,-122 904.26,-126 883.26,-126 880.26,-122 792.74,-122 792.74,-86 907.26,-86 907.26,-122"/>
<text text-anchor="middle" x="850" y="-99.8" font-family="Times,serif" font-size="14.00">NotebookModule</text>
</g>
<!-- NotebookModule&#45;&gt;AppModule -->
<g id="edge11" class="edge">
<title>NotebookModule&#45;&gt;AppModule</title>
<path fill="none" stroke="black" d="M850,-122.01C850,-138.05 850,-159 850,-159 850,-159 1056.26,-159 1056.26,-159"/>
<polygon fill="black" stroke="black" points="1056.26,-162.5 1066.26,-159 1056.26,-155.5 1056.26,-162.5"/>
</g>
<!-- NotesModule -->
<g id="node12" class="node">
<title>NotesModule</title>
<polygon fill="#8dd3c7" stroke="black" points="775.21,-122 772.21,-126 751.21,-126 748.21,-122 682.79,-122 682.79,-86 775.21,-86 775.21,-122"/>
<text text-anchor="middle" x="729" y="-99.8" font-family="Times,serif" font-size="14.00">NotesModule</text>
</g>
<!-- NotesModule&#45;&gt;AppModule -->
<g id="edge12" class="edge">
<title>NotesModule&#45;&gt;AppModule</title>
<path fill="none" stroke="black" d="M729,-122.02C729,-139.37 729,-163 729,-163 729,-163 1055.99,-163 1055.99,-163"/>
<polygon fill="black" stroke="black" points="1055.99,-166.5 1065.99,-163 1055.99,-159.5 1055.99,-166.5"/>
</g>
<!-- PaymentModule -->
<g id="node13" class="node">
<title>PaymentModule</title>
<polygon fill="#8dd3c7" stroke="black" points="665.04,-122 662.04,-126 641.04,-126 638.04,-122 556.96,-122 556.96,-86 665.04,-86 665.04,-122"/>
<text text-anchor="middle" x="611" y="-99.8" font-family="Times,serif" font-size="14.00">PaymentModule</text>
</g>
<!-- PaymentModule&#45;&gt;AppModule -->
<g id="edge13" class="edge">
<title>PaymentModule&#45;&gt;AppModule</title>
<path fill="none" stroke="black" d="M611,-122.22C611,-140.83 611,-167 611,-167 611,-167 1056.05,-167 1056.05,-167"/>
<polygon fill="black" stroke="black" points="1056.05,-170.5 1066.05,-167 1056.05,-163.5 1056.05,-170.5"/>
</g>
<!-- UsersModule -->
<g id="node14" class="node">
<title>UsersModule</title>
<polygon fill="#8dd3c7" stroke="black" points="538.92,-122 535.92,-126 514.92,-126 511.92,-122 447.08,-122 447.08,-86 538.92,-86 538.92,-122"/>
<text text-anchor="middle" x="493" y="-99.8" font-family="Times,serif" font-size="14.00">UsersModule</text>
</g>
<!-- UsersModule&#45;&gt;AppModule -->
<g id="edge14" class="edge">
<title>UsersModule&#45;&gt;AppModule</title>
<path fill="none" stroke="black" d="M493,-122.31C493,-142.15 493,-171 493,-171 493,-171 1056.21,-171 1056.21,-171"/>
<polygon fill="black" stroke="black" points="1056.21,-174.5 1066.21,-171 1056.21,-167.5 1056.21,-174.5"/>
</g>
<!-- VideosModule -->
<g id="node15" class="node">
<title>VideosModule</title>
<polygon fill="#8dd3c7" stroke="black" points="429.71,-122 426.71,-126 405.71,-126 402.71,-122 330.29,-122 330.29,-86 429.71,-86 429.71,-122"/>
<text text-anchor="middle" x="380" y="-99.8" font-family="Times,serif" font-size="14.00">VideosModule</text>
</g>
<!-- VideosModule&#45;&gt;AppModule -->
<g id="edge15" class="edge">
<title>VideosModule&#45;&gt;AppModule</title>
<path fill="none" stroke="black" d="M380,-122.28C380,-143.32 380,-175 380,-175 380,-175 1056.24,-175 1056.24,-175"/>
<polygon fill="black" stroke="black" points="1056.24,-178.5 1066.24,-175 1056.24,-171.5 1056.24,-178.5"/>
</g>
<!-- AppService -->
<g id="node17" class="node">
<title>AppService</title>
<ellipse fill="#fdb462" stroke="black" cx="249" cy="-104" rx="56.74" ry="18"/>
<text text-anchor="middle" x="249" y="-99.8" font-family="Times,serif" font-size="14.00">AppService</text>
</g>
<!-- AppService&#45;&gt;AppModule -->
<g id="edge16" class="edge">
<title>AppService&#45;&gt;AppModule</title>
<path fill="none" stroke="black" d="M249,-122.16C249,-144.35 249,-179 249,-179 249,-179 1056.28,-179 1056.28,-179"/>
<polygon fill="black" stroke="black" points="1056.28,-182.5 1066.28,-179 1056.28,-175.5 1056.28,-182.5"/>
</g>
<!-- DatabaseService -->
<g id="node18" class="node">
<title>DatabaseService</title>
<ellipse fill="#fdb462" stroke="black" cx="99" cy="-104" rx="75.26" ry="18"/>
<text text-anchor="middle" x="99" y="-99.8" font-family="Times,serif" font-size="14.00">DatabaseService</text>
</g>
<!-- DatabaseService&#45;&gt;AppModule -->
<g id="edge17" class="edge">
<title>DatabaseService&#45;&gt;AppModule</title>
<path fill="none" stroke="black" d="M99,-122.32C99,-145.66 99,-183 99,-183 99,-183 1056.25,-183 1056.25,-183"/>
<polygon fill="black" stroke="black" points="1056.25,-186.5 1066.25,-183 1056.25,-179.5 1056.25,-186.5"/>
</g>
</g>
</svg>
